<svg height="585" width="570" xmlns="http://www.w3.org/2000/svg">
    <path
        d="m360.8759766 165.5421448c42.4572143 68.6122894 149.2272338-58.9384918 170.9887695-115.9763088 61.182312 226.6875153-128.5315552 308.9147949-135.4263916 328.8926086 7.2550049 69.3253784 51.509552 118.1947937 131.3958435 156.3851624-99.1514587 29.8260803-238.6083679-6.4488525-316.8009644-121.7224731-35.9658813-53.0218602-148.2312831 50.2070827-165.2523946 116.0797328-34.3766518-113.4429626 2.4183283-172.5073853 35.5939369-230.9724121 38.4000206-67.671936 102.2507477-75.3491211 97.4141083-117.2668152-6.7020007-58.0839386-73.6525393-117.4583759-132.2019368-134.6202393 117.0510989-46.3286323 264.4125948 38.5987282 314.2890292 119.2007447zm-25.0255738 131.1669922c0-40.709198-44.3727722-66.2905884-79.6792755-45.9359894s-35.3065033 71.5173798.0000153 91.8719635c35.3065185 20.3546142 79.6792602-5.2267761 79.6792602-45.9359741z"
        style="fill:none;stroke:black;stroke-width:30" />
</svg>